<svg width="169" height="50" viewBox="0 0 169 50" fill="none" xmlns="http://www.w3.org/2000/svg">
<path d="M162.563 50H6.25242C2.81363 50 0 47.1875 0 43.75V6.25003C0 2.8125 2.81357 0 6.25242 0H162.563C166.001 0 168.815 2.8125 168.815 6.25003V43.75C168.815 47.1875 166.001 50 162.563 50" fill="black"/>
<path d="M162.563 0H6.25242C2.81363 0 0 2.8125 0 6.25003V43.75C0 47.1875 2.81357 50 6.25242 50H162.563C166.001 50 168.815 47.1875 168.815 43.75V6.25003C168.815 2.8125 166.002 0 162.563 0M162.563 0.999968C165.459 0.999968 167.815 3.35551 167.815 6.25003V43.75C167.815 46.645 165.459 49.0005 162.563 49.0005H6.25242C3.35683 49.0005 1.0004 46.645 1.0004 43.75V6.25003C1.0004 3.35551 3.35677 1.00002 6.25242 1.00002H162.563" fill="#A6A6A6"/>
<path d="M59.296 12.8043C59.296 13.8516 58.9857 14.6855 58.3643 15.3077C57.6585 16.0474 56.7387 16.4176 55.6079 16.4176C54.5249 16.4176 53.6042 16.0426 52.847 15.2915C52.0885 14.5411 51.71 13.6104 51.71 12.5001C51.71 11.3892 52.0885 10.4591 52.847 9.70801C53.6042 8.95758 54.5249 8.58203 55.6079 8.58203C56.1452 8.58203 56.6596 8.68708 57.1481 8.89657C57.6365 9.10657 58.0283 9.38532 58.3214 9.73441L57.6619 10.3941C57.1652 9.80081 56.4813 9.50442 55.6079 9.50442C54.8181 9.50442 54.1352 9.78182 53.5588 10.337C52.9824 10.8927 52.6942 11.6133 52.6942 12.5001C52.6942 13.3868 52.9824 14.1074 53.5588 14.6632C54.1352 15.2183 54.818 15.4957 55.6079 15.4957C56.4457 15.4957 57.1442 15.2168 57.7034 14.6583C58.0665 14.2944 58.2764 13.7887 58.3325 13.1392H55.6078V12.2383H59.2436C59.2787 12.4342 59.2958 12.6222 59.2958 12.8043" fill="white"/>
<path d="M59.2957 12.8042H59.1706C59.1696 13.8276 58.8706 14.6224 58.2756 15.2192L58.2743 15.2202L58.2737 15.2212C57.5904 15.9354 56.7119 16.2909 55.6075 16.2924C54.5535 16.2909 53.6713 15.9316 52.9346 15.203C52.1996 14.4731 51.8361 13.5819 51.8347 12.4999C51.8361 11.4174 52.1996 10.5268 52.9346 9.79732C53.6713 9.0683 54.5535 8.70842 55.6075 8.7069C56.1288 8.7069 56.6251 8.80859 57.0984 9.01116C57.5722 9.21531 57.9464 9.48283 58.2253 9.81496L58.3211 9.73429L58.2327 9.64592L57.5732 10.306L57.6616 10.3939L57.7579 10.3139C57.238 9.69131 56.5084 9.37744 55.6076 9.3793C54.7885 9.37829 54.068 9.67086 53.472 10.2471C52.8702 10.8252 52.5679 11.5864 52.5689 12.4999C52.5679 13.4136 52.8702 14.1747 53.472 14.7528C54.068 15.3291 54.7885 15.6216 55.6075 15.6206C56.4731 15.6221 57.2108 15.3285 57.7915 14.7465C58.1794 14.3578 58.3993 13.8193 58.4569 13.1498L58.4685 13.0141H55.7326V12.3632H59.2433V12.2382L59.1202 12.2602C59.1544 12.4497 59.1705 12.6298 59.1705 12.8042H59.4206C59.4206 12.6142 59.403 12.4189 59.3664 12.2158L59.3479 12.1132H55.4826V13.2641H58.3323V13.1391L58.2077 13.1283C58.1526 13.7573 57.9522 14.2309 57.6147 14.5699C57.0774 15.105 56.418 15.3691 55.6076 15.3706C54.8471 15.3696 54.2018 15.1078 53.6455 14.5732C53.0945 14.0404 52.8204 13.3603 52.819 12.4999C52.8204 11.6396 53.0945 10.9594 53.6455 10.4267C54.2018 9.89203 54.847 9.6303 55.6076 9.62929C56.4532 9.63131 57.0917 9.91057 57.566 10.4745L57.6539 10.579L58.4095 9.82271L58.4906 9.7417L58.4168 9.65418C58.1096 9.28806 57.7002 8.99746 57.1971 8.78173C56.693 8.56533 56.1611 8.45691 55.6076 8.45691C54.4959 8.45596 53.5365 8.84656 52.7584 9.61957C51.9773 10.3911 51.5836 11.3608 51.5847 12.4999C51.5836 13.6385 51.9773 14.6089 52.7589 15.3808C53.5365 16.1533 54.4959 16.5435 55.6076 16.5424C56.7653 16.5435 57.7257 16.1591 58.4545 15.3939L58.364 15.3075L58.4524 15.396C59.1002 14.749 59.4215 13.8749 59.4207 12.8042H59.2956M65.0595 9.67131H61.6427V12.0493H64.724V12.9505H61.6427V15.3285H65.0595V16.2499H60.6794V8.74994H65.0595V9.67131" fill="white"/>
<path d="M65.0598 9.67137V9.54638H61.5179V12.1744H64.5992V12.8253L61.5179 12.8256V15.4536H64.9347V16.125H60.8048V8.87499H64.9347V9.67137H65.0598V9.54638V9.67137H65.1848V8.625H60.5547V16.375H65.1848V15.2036H61.768V13.0756H64.8493V11.9244H61.768V9.79637H65.1848V9.67137H65.0598M69.1253 16.25H68.1606V9.67132H66.065V8.74994H71.2209V9.67132H69.1253V16.2499" fill="white"/>
<path d="M69.1253 16.25V16.125H68.2856V9.54638H66.19V8.87505H71.0958V9.54638H69.0002V16.25H69.1253V16.125V16.25H69.2503V9.79637H71.3459V8.625H65.9399V9.79631H68.0355V16.3749H69.2503V16.2499H69.1253M74.9513 16.25V8.74994H75.915V16.2499H74.9513" fill="white"/>
<path d="M74.9512 16.25H75.0763V8.87499H75.7899V16.125H74.9512V16.25H75.0763H74.9512V16.375H76.04V8.625H74.8262V16.375H74.9512V16.25M80.1914 16.25H79.2267V9.67132H77.1313V8.74994H82.287V9.67132H80.1914V16.2499" fill="white"/>
<path d="M80.1918 16.2501V16.1251H79.3521V9.54644H77.2567V8.87511H82.1623V9.54644H80.0668V16.25H80.1918V16.1251V16.25H80.3169V9.79643H82.4124V8.62506H77.0066V9.79637H79.102V16.375H80.3169V16.25H80.1918M87.2581 14.653C87.8134 15.2149 88.4929 15.4956 89.2964 15.4956C90.1 15.4956 90.7799 15.2149 91.3343 14.653C91.8902 14.091 92.1687 13.3726 92.1687 12.5001C92.1687 11.6276 91.8902 10.9092 91.3343 10.3472C90.7799 9.7852 90.1 9.50442 89.2964 9.50442C88.4929 9.50442 87.8134 9.7852 87.2581 10.3472C86.7036 10.9092 86.4252 11.6276 86.4252 12.5001C86.4252 13.3726 86.7036 14.091 87.2581 14.653ZM92.0475 15.2808C91.3098 16.039 90.3925 16.4176 89.2964 16.4176C88.1993 16.4176 87.2824 16.039 86.5464 15.2808C85.8082 14.5234 85.4409 13.5963 85.4409 12.5001C85.4409 11.4038 85.8082 10.4765 86.5464 9.7193C87.2824 8.9609 88.1993 8.58203 89.2964 8.58203C90.3867 8.58203 91.3016 8.96292 92.0426 9.72419C92.7826 10.4854 93.1529 11.4107 93.1529 12.5001C93.1529 13.5963 92.7835 14.5234 92.0475 15.2808Z" fill="white"/>
<path d="M87.2578 14.6528L87.1689 14.7407C87.7448 15.3252 88.4634 15.6221 89.2962 15.6206C90.1285 15.6221 90.848 15.3252 91.423 14.7407C92.0028 14.1557 92.2944 13.3988 92.2935 12.4999C92.2943 11.6011 92.0028 10.8442 91.423 10.2592C90.848 9.67468 90.1285 9.37784 89.2962 9.3793C88.4634 9.37784 87.7448 9.67468 87.1689 10.2592C86.5905 10.8442 86.2984 11.6011 86.2999 12.4999C86.2984 13.3988 86.5905 14.1557 87.1689 14.7407L87.2578 14.6528L87.3468 14.5649C86.8163 14.0253 86.551 13.3466 86.55 12.4999C86.551 11.6533 86.8163 10.9746 87.3467 10.4349C87.882 9.89546 88.5214 9.63081 89.2962 9.62935C90.0704 9.63081 90.7112 9.89546 91.2452 10.4349C91.7766 10.9746 92.0419 11.6533 92.0428 12.4999C92.0419 13.3465 91.7766 14.0253 91.2452 14.5649C90.7112 15.1045 90.0704 15.3691 89.2962 15.3705C88.5214 15.3691 87.882 15.1045 87.3467 14.5649L87.2578 14.6528ZM92.0472 15.2807L91.9579 15.1938C91.2408 15.9282 90.364 16.291 89.2962 16.2925C88.2279 16.2909 87.3511 15.9282 86.6354 15.1938L86.632 15.1899L86.6354 15.1938C85.9199 14.4569 85.5668 13.5683 85.5658 12.4999C85.5668 11.4315 85.9199 10.5429 86.6354 9.80608C87.3511 9.07167 88.2279 8.70842 89.2962 8.70696C90.3571 8.70842 91.2319 9.07318 91.953 9.81142C92.671 10.5517 93.0261 11.4389 93.0277 12.4999C93.0261 13.5683 92.672 14.4569 91.9579 15.1938L92.0472 15.2807L92.1372 15.3675C92.8952 14.5893 93.2786 13.6239 93.2778 12.4999C93.2787 11.3823 92.8937 10.4189 92.1322 9.63721C91.3702 8.85241 90.4158 8.45556 89.2962 8.45691C88.1708 8.45556 87.2134 8.85055 86.4562 9.63233V9.63176C85.6967 10.4106 85.3147 11.3759 85.3157 12.4999C85.3147 13.6239 85.6967 14.5893 86.4562 15.368L86.4596 15.3716L86.4562 15.3675C87.2134 16.1493 88.1708 16.5435 89.2962 16.5424C90.4211 16.5435 91.3785 16.1493 92.1372 15.3675L92.0472 15.2807V15.2807ZM94.5057 16.25V8.74988H95.679L99.3254 14.5844H99.367L99.3254 13.139V8.74988H100.29V16.2499H99.2839L95.469 10.1326H95.4274L95.469 11.5785V16.2499H94.5057" fill="white"/>
<path d="M94.5057 16.25H94.6307V8.87499H95.6096L99.256 14.7095H99.4954L99.4504 13.1373V8.87505H100.165V16.125H99.3533L95.5384 10.0078H95.299L95.3439 11.5806V16.125H94.5057V16.25H94.6307H94.5057V16.375H95.594V11.5766L95.5525 10.1294L95.4274 10.1328V10.2578H95.469V10.1328L95.3629 10.1992L99.2145 16.375H100.415V8.625H99.2004V13.1406L99.2419 14.5878L99.367 14.5845V14.4595H99.3254V14.5845L99.4315 14.5181L95.7483 8.625H94.3807V16.375H94.5058V16.25M133.722 37.5H136.055V21.8735H133.722L133.722 37.5ZM154.738 27.5026L152.064 34.2774H151.984L149.208 27.5025H146.694L150.857 36.9716L148.484 42.2388H150.918L157.333 27.5025L154.738 27.5026ZM141.506 35.7252C140.741 35.7252 139.675 35.3433 139.675 34.398C139.675 33.1919 141.003 32.7295 142.149 32.7295C143.175 32.7295 143.657 32.9506 144.281 33.2525C144.099 34.6997 142.853 35.7252 141.506 35.7252V35.7252ZM141.787 27.1607C140.098 27.1607 138.348 27.9047 137.624 29.5533L139.695 30.4175C140.138 29.5533 140.962 29.2715 141.827 29.2715C143.034 29.2715 144.261 29.9956 144.281 31.2823V31.4429C143.858 31.2017 142.954 30.8399 141.847 30.8399C139.615 30.8399 137.342 32.0659 137.342 34.3579C137.342 36.4488 139.172 37.7959 141.223 37.7959C142.793 37.7959 143.657 37.0923 144.201 36.2681H144.281V37.4741H146.533V31.4829C146.533 28.709 144.462 27.1607 141.787 27.1607V27.1607ZM127.367 29.4047H124.048V24.0484H127.367C129.111 24.0484 130.101 25.4922 130.101 26.7265C130.101 27.9375 129.111 29.4047 127.367 29.4047ZM127.307 21.8735H121.716V37.5H124.048V31.5796H127.307C129.893 31.5796 132.435 29.708 132.435 26.7265C132.435 23.7451 129.893 21.8735 127.307 21.8735V21.8735ZM96.8186 35.728C95.2066 35.728 93.857 34.3789 93.857 32.5259C93.857 30.6534 95.2066 29.2837 96.8186 29.2837C98.4101 29.2837 99.6591 30.6534 99.6591 32.5259C99.6591 34.3789 98.4101 35.728 96.8186 35.728H96.8186ZM99.4978 28.3775H99.4172C98.8936 27.7534 97.8858 27.1895 96.6169 27.1895C93.9576 27.1895 91.5202 29.5254 91.5202 32.5259C91.5202 35.5064 93.9576 37.8223 96.6169 37.8223C97.8858 37.8223 98.8936 37.2583 99.4172 36.6142H99.4978V37.3794C99.4978 39.4136 98.4101 40.501 96.6574 40.501C95.2271 40.501 94.3406 39.4736 93.9776 38.6079L91.9433 39.4536C92.5274 40.8633 94.0787 42.5953 96.6574 42.5953C99.3972 42.5953 101.714 40.9839 101.714 37.0571V27.5118H99.4978V28.3775ZM103.325 37.5H105.662V21.873H103.325V37.5ZM109.107 32.3448C109.047 30.2905 110.699 29.2436 111.887 29.2436C112.815 29.2436 113.6 29.7065 113.861 30.3717L109.107 32.3448ZM116.36 30.5727C115.917 29.3842 114.567 27.1895 111.807 27.1895C109.067 27.1895 106.791 29.3442 106.791 32.5059C106.791 35.4864 109.047 37.8223 112.069 37.8223C114.507 37.8223 115.917 36.332 116.501 35.4662L114.688 34.2577C114.084 35.144 113.257 35.728 112.069 35.728C110.88 35.728 110.034 35.1841 109.49 34.1171L116.601 31.1768L116.36 30.5727ZM59.7028 28.8208V31.0761H65.1017C64.9406 32.3448 64.5175 33.271 63.8727 33.9155C63.0873 34.7011 61.8584 35.5669 59.7027 35.5669C56.3786 35.5669 53.78 32.8886 53.78 29.5659C53.78 26.2432 56.3786 23.5645 59.7028 23.5645C61.4959 23.5645 62.805 24.2695 63.7721 25.1757L65.3636 23.585C64.014 22.2959 62.2208 21.3092 59.7028 21.3092C55.1497 21.3092 51.322 25.0147 51.322 29.5659C51.322 34.1171 55.1497 37.8223 59.7028 37.8223C62.1607 37.8223 64.014 37.0171 65.4642 35.5064C66.9551 34.0161 67.4186 31.9219 67.4186 30.2305C67.4186 29.7065 67.3785 29.2236 67.2974 28.8208H59.7028ZM73.5567 35.728C71.9447 35.728 70.5546 34.3989 70.5546 32.5059C70.5546 30.5927 71.9447 29.2837 73.5567 29.2837C75.1681 29.2837 76.5583 30.5927 76.5583 32.5059C76.5583 34.3989 75.1681 35.728 73.5567 35.728ZM73.5567 27.1895C70.6151 27.1895 68.2177 29.4247 68.2177 32.5059C68.2177 35.5669 70.6151 37.8223 73.5567 37.8223C76.4977 37.8223 78.8952 35.5669 78.8952 32.5059C78.8952 29.4247 76.4977 27.1895 73.5567 27.1895ZM85.2027 35.728C83.5914 35.728 82.201 34.3989 82.201 32.5059C82.201 30.5927 83.5914 29.2837 85.2027 29.2837C86.8142 29.2837 88.2044 30.5927 88.2044 32.5059C88.2044 34.3989 86.8142 35.728 85.2027 35.728H85.2027ZM85.2027 27.1895C82.2612 27.1895 79.8643 29.4247 79.8643 32.5059C79.8643 35.5669 82.2612 37.8223 85.2027 37.8223C88.1439 37.8223 90.5413 35.5669 90.5413 32.5059C90.5413 29.4247 88.1439 27.1895 85.2027 27.1895H85.2027Z" fill="white"/>
<path d="M13.1408 9.51411C12.7212 9.89258 12.4707 10.5239 12.4707 11.3618V11.1724V38.8238V38.6416C12.4707 39.4155 12.6856 40.0131 13.0494 40.398L13.1423 40.4868V40.4872C13.4368 40.7529 13.8145 40.894 14.2473 40.8935C14.6702 40.8935 15.146 40.7587 15.6482 40.4741L33.7992 30.165L40.0339 26.6235C40.8258 26.1739 41.2703 25.5938 41.3446 25.0029V25.0005C41.2703 24.4082 40.8258 23.8286 40.034 23.3789L33.7987 19.8378L15.6482 9.52872C15.145 9.24361 14.6688 9.10834 14.2448 9.10834C13.8125 9.10834 13.4354 9.24895 13.141 9.51411H13.1408Z" fill="#00C1FF"/>
<path d="M13.1424 40.4869L13.0494 40.398C12.6856 40.0132 12.4707 39.4155 12.4707 38.6417V38.8238V11.1793V11.3618C12.4707 10.5239 12.7212 9.89262 13.1408 9.51415L28.6341 25.001L13.1424 40.4869Z" fill="url(#paint0_linear_860_44074)"/>
<path d="M33.7993 30.165L28.6342 25.001L33.7988 19.8378L40.0341 23.3788C40.8258 23.8286 41.2704 24.4082 41.3447 25.0005V25.0028C41.2704 25.5937 40.8258 26.1739 40.0341 26.6235L33.7993 30.1649" fill="url(#paint1_linear_860_44074)"/>
<path d="M14.2471 40.8936C13.8143 40.8939 13.4367 40.7528 13.1422 40.4872V40.4868L28.6339 25.001L33.799 30.165L15.648 40.4741C15.1458 40.7588 14.67 40.8936 14.2471 40.8936Z" fill="url(#paint2_linear_860_44074)"/>
<path d="M28.6339 25.0011L13.1406 9.51423C13.4351 9.24907 13.8123 9.10845 14.2445 9.10845C14.6686 9.10845 15.1448 9.24367 15.648 9.52883L33.7985 19.8379L28.6339 25.0011" fill="url(#paint3_linear_860_44074)"/>
<path d="M14.2478 41.0767C13.8151 41.0767 13.4369 40.9355 13.1424 40.6699L13.1419 40.6704C13.1407 40.6692 13.1394 40.668 13.138 40.667L13.0574 40.5884C13.0549 40.5859 13.0525 40.583 13.0496 40.5802L13.1424 40.4873C13.437 40.7529 13.8145 40.894 14.2474 40.8935C14.6703 40.8935 15.1461 40.7588 15.6483 40.4742L33.7993 30.165L33.9156 30.2813L33.7978 30.3482L15.6482 40.6567C15.1906 40.916 14.7553 41.0513 14.3621 41.0738C14.324 41.0757 14.2859 41.0766 14.2478 41.0766" fill="url(#paint4_linear_860_44074)"/>
<path d="M13.0494 40.5801C12.6856 40.1953 12.4707 39.5981 12.4707 38.8238V38.6417C12.4707 39.4155 12.6856 40.0131 13.0494 40.398L13.1423 40.4869L13.0494 40.5801" fill="url(#paint5_linear_860_44074)"/>
<path d="M33.9154 30.2813L33.7991 30.165L40.0338 26.6235C40.8257 26.1739 41.2702 25.5938 41.3445 25.0029C41.3445 25.2197 41.2961 25.4365 41.1999 25.6475C41.006 26.0728 40.6172 26.4746 40.0339 26.8061L33.9154 30.2813" fill="url(#paint6_linear_860_44074)"/>
<path d="M41.3447 25.0006C41.2704 24.4083 40.8259 23.8287 40.0341 23.379L33.7988 19.838L33.9151 19.7217H33.9156L40.0341 23.1968C40.9071 23.693 41.3442 24.3467 41.3447 25.0006" fill="url(#paint7_linear_860_44074)"/>
<path d="M12.4707 11.3618V11.1708C12.4707 11.1019 12.4726 11.0346 12.4761 10.9692V10.9662C12.4761 10.9653 12.4761 10.9644 12.4764 10.9633V10.956C12.5141 10.2894 12.7212 9.76951 13.0494 9.42233L13.1408 9.51407C12.7212 9.89259 12.4707 10.5239 12.4707 11.3618Z" fill="url(#paint8_linear_860_44074)"/>
<path d="M33.7986 19.8379L15.6481 9.52867C15.145 9.24356 14.6688 9.10834 14.2448 9.10834C13.8125 9.10834 13.4353 9.24896 13.1409 9.51412L13.0494 9.42232C13.078 9.39211 13.1077 9.36297 13.1384 9.33496C13.1393 9.33395 13.1409 9.33294 13.1418 9.33199C13.434 9.06885 13.8071 8.92823 14.2355 8.92571H14.2448C14.6688 8.92571 15.145 9.06098 15.6481 9.3462L33.9154 19.7212L33.9149 19.7216L33.7986 19.8379" fill="url(#paint9_linear_860_44074)"/>
<defs>
<linearGradient id="paint0_linear_860_44074" x1="22.3718" y1="10.8871" x2="9.04689" y2="24.2602" gradientUnits="userSpaceOnUse">
<stop stop-color="#00A0FF"/>
<stop offset="0.00657" stop-color="#00A1FF"/>
<stop offset="0.2601" stop-color="#00BEFF"/>
<stop offset="0.5122" stop-color="#00D2FF"/>
<stop offset="0.7604" stop-color="#00DFFF"/>
<stop offset="1" stop-color="#00E3FF"/>
</linearGradient>
<linearGradient id="paint1_linear_860_44074" x1="42.3094" y1="24.9117" x2="12.0515" y2="24.9117" gradientUnits="userSpaceOnUse">
<stop stop-color="#FFE000"/>
<stop offset="0.4087" stop-color="#FFBD00"/>
<stop offset="0.7754" stop-color="#FFA500"/>
<stop offset="1" stop-color="#FF9C00"/>
</linearGradient>
<linearGradient id="paint2_linear_860_44074" x1="31.0568" y1="29.9107" x2="8.47639" y2="52.4073" gradientUnits="userSpaceOnUse">
<stop stop-color="#FF3A44"/>
<stop offset="1" stop-color="#C31162"/>
</linearGradient>
<linearGradient id="paint3_linear_860_44074" x1="9.14757" y1="7.21822" x2="19.2111" y2="17.2598" gradientUnits="userSpaceOnUse">
<stop stop-color="#32A071"/>
<stop offset="0.0685" stop-color="#2DA771"/>
<stop offset="0.4762" stop-color="#15CF74"/>
<stop offset="0.8009" stop-color="#06E775"/>
<stop offset="1" stop-color="#00F076"/>
</linearGradient>
<linearGradient id="paint4_linear_860_44074" x1="31.0458" y1="33.4928" x2="12.9625" y2="51.6416" gradientUnits="userSpaceOnUse">
<stop stop-color="#CC2E36"/>
<stop offset="1" stop-color="#9C0E4E"/>
</linearGradient>
<linearGradient id="paint5_linear_860_44074" x1="14.5346" y1="10.8871" x2="2.79555" y2="22.6688" gradientUnits="userSpaceOnUse">
<stop stop-color="#008DE0"/>
<stop offset="0.00657" stop-color="#008DE0"/>
<stop offset="0.2601" stop-color="#00A7E0"/>
<stop offset="0.5122" stop-color="#00B8E0"/>
<stop offset="0.7604" stop-color="#00C4E0"/>
<stop offset="1" stop-color="#00C7E0"/>
</linearGradient>
<linearGradient id="paint6_linear_860_44074" x1="42.3093" y1="25.0017" x2="12.0513" y2="25.0017" gradientUnits="userSpaceOnUse">
<stop stop-color="#E0C500"/>
<stop offset="0.4087" stop-color="#E0A600"/>
<stop offset="0.7754" stop-color="#E09100"/>
<stop offset="1" stop-color="#E08900"/>
</linearGradient>
<linearGradient id="paint7_linear_860_44074" x1="42.3095" y1="25.0018" x2="12.0516" y2="25.0018" gradientUnits="userSpaceOnUse">
<stop stop-color="#FFE840"/>
<stop offset="0.4087" stop-color="#FFCE40"/>
<stop offset="0.7754" stop-color="#FFBC40"/>
<stop offset="1" stop-color="#FFB540"/>
</linearGradient>
<linearGradient id="paint8_linear_860_44074" x1="14.5219" y1="10.9083" x2="3.21406" y2="21.7654" gradientUnits="userSpaceOnUse">
<stop stop-color="#40B8FF"/>
<stop offset="0.00657" stop-color="#40B9FF"/>
<stop offset="0.2601" stop-color="#40CEFF"/>
<stop offset="0.5122" stop-color="#40DDFF"/>
<stop offset="0.7604" stop-color="#40E7FF"/>
<stop offset="1" stop-color="#40EAFF"/>
</linearGradient>
<linearGradient id="paint9_linear_860_44074" x1="9.12517" y1="10.4933" x2="17.2002" y2="18.5976" gradientUnits="userSpaceOnUse">
<stop stop-color="#65B895"/>
<stop offset="0.0685" stop-color="#62BD95"/>
<stop offset="0.4762" stop-color="#50DB97"/>
<stop offset="0.8009" stop-color="#44ED98"/>
<stop offset="1" stop-color="#40F498"/>
</linearGradient>
</defs>
</svg>
