<svg width="170" height="50" viewBox="0 0 170 50" fill="none" xmlns="http://www.w3.org/2000/svg">
<path d="M163.072 50H5.92309C2.65781 50 0 47.34 0 44.0837V5.9075C0 2.65 2.65781 0 5.92309 0H163.072C166.336 0 169.088 2.65 169.088 5.9075V44.0837C169.088 47.34 166.336 50 163.072 50Z" fill="#A6A6A6"/>
<path d="M167.876 44.0851C167.876 46.7301 165.729 48.8725 163.073 48.8725H5.92299C3.26893 48.8725 1.11462 46.7301 1.11462 44.0851V5.9063C1.11462 3.26255 3.26893 1.11255 5.92299 1.11255H163.072C165.729 1.11255 167.874 3.26255 167.874 5.9063L167.876 44.0851Z" fill="black"/>
<path d="M37.7353 24.7299C37.6989 20.7012 41.0406 18.7412 41.1934 18.6499C39.3009 15.8962 36.3675 15.5199 35.3367 15.4899C32.873 15.2312 30.4833 16.9612 29.2283 16.9612C27.9482 16.9612 26.0156 15.5149 23.9327 15.5574C21.2523 15.5987 18.7448 17.1474 17.3695 19.5524C14.5314 24.4562 16.6481 31.6624 19.3673 35.6262C20.7275 37.5674 22.3169 39.7349 24.3973 39.6587C26.4327 39.5749 27.1929 38.3637 29.6491 38.3637C32.0827 38.3637 32.7966 39.6587 34.9184 39.6099C37.1027 39.5749 38.478 37.6599 39.7906 35.7012C41.3625 33.4762 41.9938 31.2849 42.0188 31.1724C41.9675 31.1549 37.7766 29.5587 37.7353 24.7299Z" fill="white"/>
<path d="M33.7272 12.8825C34.8219 11.5162 35.5709 9.65749 35.363 7.77124C33.7786 7.84124 31.7971 8.86499 30.6561 10.2012C29.6466 11.3787 28.7448 13.3087 28.9777 15.1237C30.7575 15.2562 32.585 14.2275 33.7272 12.8825Z" fill="white"/>
<path d="M67.1905 39.38H64.3461L62.788 34.4937H57.3722L55.8879 39.38H53.1187L58.4844 22.745H61.7985L67.1905 39.38ZM62.3183 32.4437L60.9092 28.1C60.7602 27.6562 60.4809 26.6112 60.0688 24.9662H60.0187C59.8546 25.6737 59.5903 26.7187 59.2271 28.1L57.8431 32.4437H62.3183V32.4437Z" fill="white"/>
<path d="M80.9894 33.235C80.9894 35.275 80.4371 36.8875 79.3324 38.0712C78.3429 39.125 77.1142 39.6512 75.6475 39.6512C74.0643 39.6512 72.9271 39.0837 72.2344 37.9487H72.1843V44.2675H69.514V31.3337C69.514 30.0512 69.4802 28.735 69.415 27.385H71.7635L71.9125 29.2862H71.9626C72.8532 27.8537 74.2046 27.1387 76.0182 27.1387C77.4361 27.1387 78.6197 27.6975 79.5666 28.8162C80.516 29.9362 80.9894 31.4087 80.9894 33.235ZM78.269 33.3325C78.269 32.165 78.006 31.2025 77.4774 30.445C76.9 29.655 76.1247 29.26 75.1528 29.26C74.4939 29.26 73.8952 29.48 73.3604 29.9137C72.8244 30.3512 72.4737 30.9225 72.3096 31.63C72.2269 31.96 72.1856 32.23 72.1856 32.4425V34.4425C72.1856 35.315 72.4536 36.0512 72.9897 36.6525C73.5258 37.2537 74.2221 37.5537 75.0789 37.5537C76.0846 37.5537 76.8674 37.1662 77.4273 36.3937C77.9884 35.62 78.269 34.6 78.269 33.3325Z" fill="white"/>
<path d="M94.8131 33.235C94.8131 35.275 94.2608 36.8875 93.1548 38.0712C92.1666 39.125 90.9379 39.6512 89.4712 39.6512C87.888 39.6512 86.7508 39.0837 86.0594 37.9487H86.0093V44.2675H83.3389V31.3337C83.3389 30.0512 83.3051 28.735 83.24 27.385H85.5884L85.7375 29.2862H85.7876C86.6769 27.8537 88.0283 27.1387 89.8432 27.1387C91.2598 27.1387 92.4434 27.6975 93.3928 28.8162C94.3384 29.9362 94.8131 31.4087 94.8131 33.235ZM92.0927 33.3325C92.0927 32.165 91.8284 31.2025 91.2999 30.445C90.7224 29.655 89.9497 29.26 88.9765 29.26C88.3164 29.26 87.7189 29.48 87.1829 29.9137C86.6468 30.3512 86.2973 30.9225 86.1333 31.63C86.0519 31.96 86.0093 32.23 86.0093 32.4425V34.4425C86.0093 35.315 86.2773 36.0512 86.8109 36.6525C87.3469 37.2525 88.0433 37.5537 88.9026 37.5537C89.9083 37.5537 90.6911 37.1662 91.251 36.3937C91.8121 35.62 92.0927 34.6 92.0927 33.3325Z" fill="white"/>
<path d="M110.269 34.715C110.269 36.13 109.777 37.2812 108.789 38.17C107.703 39.1412 106.191 39.6262 104.248 39.6262C102.455 39.6262 101.017 39.2812 99.9286 38.59L100.547 36.3687C101.72 37.0762 103.006 37.4312 104.408 37.4312C105.413 37.4312 106.196 37.2037 106.758 36.7512C107.318 36.2987 107.598 35.6912 107.598 34.9337C107.598 34.2587 107.367 33.69 106.905 33.2287C106.445 32.7675 105.678 32.3387 104.605 31.9425C101.687 30.8562 100.229 29.265 100.229 27.1725C100.229 25.805 100.74 24.6837 101.764 23.8112C102.783 22.9375 104.143 22.5012 105.844 22.5012C107.361 22.5012 108.621 22.765 109.627 23.2912L108.959 25.4637C108.02 24.9537 106.958 24.6987 105.769 24.6987C104.83 24.6987 104.096 24.93 103.57 25.39C103.125 25.8012 102.902 26.3025 102.902 26.8962C102.902 27.5537 103.156 28.0975 103.667 28.525C104.112 28.92 104.92 29.3475 106.092 29.8087C107.526 30.385 108.58 31.0587 109.257 31.8312C109.932 32.6012 110.269 33.565 110.269 34.715Z" fill="white"/>
<path d="M119.098 29.385H116.155V35.2087C116.155 36.69 116.673 37.43 117.713 37.43C118.19 37.43 118.586 37.3887 118.899 37.3062L118.973 39.33C118.447 39.5262 117.754 39.625 116.896 39.625C115.842 39.625 115.017 39.3037 114.422 38.6625C113.83 38.02 113.532 36.9425 113.532 35.4287V29.3825H111.778V27.3825H113.532V25.1862L116.155 24.3962V27.3825H119.098V29.385Z" fill="white"/>
<path d="M132.378 33.2837C132.378 35.1275 131.85 36.6412 130.795 37.825C129.689 39.0437 128.221 39.6512 126.391 39.6512C124.628 39.6512 123.224 39.0675 122.177 37.9C121.13 36.7325 120.606 35.2587 120.606 33.4825C120.606 31.6237 121.145 30.1012 122.226 28.9175C123.304 27.7325 124.759 27.14 126.589 27.14C128.353 27.14 129.772 27.7237 130.843 28.8925C131.867 30.0262 132.378 31.49 132.378 33.2837ZM129.608 33.37C129.608 32.2637 129.371 31.315 128.891 30.5237C128.332 29.5662 127.531 29.0887 126.494 29.0887C125.421 29.0887 124.605 29.5675 124.045 30.5237C123.566 31.3162 123.329 32.28 123.329 33.42C123.329 34.5262 123.566 35.475 124.045 36.265C124.623 37.2225 125.429 37.7 126.47 37.7C127.49 37.7 128.29 37.2125 128.868 36.24C129.36 35.4337 129.608 34.475 129.608 33.37Z" fill="white"/>
<path d="M141.058 29.7287C140.794 29.68 140.512 29.655 140.217 29.655C139.277 29.655 138.551 30.0087 138.04 30.7175C137.595 31.3425 137.372 32.1325 137.372 33.0862V39.38H134.703L134.728 31.1625C134.728 29.78 134.694 28.5212 134.628 27.3862H136.954L137.052 29.6812H137.125C137.407 28.8925 137.852 28.2575 138.461 27.7812C139.056 27.3525 139.698 27.1387 140.391 27.1387C140.637 27.1387 140.86 27.1562 141.058 27.1875V29.7287Z" fill="white"/>
<path d="M153.001 32.815C153.001 33.2925 152.97 33.695 152.903 34.0237H144.892C144.923 35.2087 145.31 36.115 146.054 36.74C146.73 37.2987 147.603 37.5787 148.675 37.5787C149.861 37.5787 150.943 37.39 151.916 37.0112L152.334 38.8612C151.197 39.3562 149.855 39.6025 148.305 39.6025C146.441 39.6025 144.979 39.055 143.914 37.9612C142.852 36.8675 142.319 35.3987 142.319 33.5562C142.319 31.7475 142.814 30.2412 143.805 29.04C144.842 27.7575 146.244 27.1162 148.007 27.1162C149.739 27.1162 151.051 27.7575 151.941 29.04C152.646 30.0587 153.001 31.3187 153.001 32.815ZM150.454 32.1237C150.472 31.3337 150.298 30.6512 149.936 30.075C149.474 29.3337 148.764 28.9637 147.808 28.9637C146.935 28.9637 146.225 29.325 145.682 30.05C145.238 30.6262 144.974 31.3175 144.892 32.1225H150.454V32.1237Z" fill="white"/>
<path d="M61.4353 12.5112C61.4353 13.9825 60.9932 15.09 60.1102 15.8337C59.2923 16.52 58.1299 16.8637 56.6244 16.8637C55.8779 16.8637 55.2392 16.8312 54.7043 16.7662V8.72749C55.402 8.61499 56.1535 8.5575 56.9651 8.5575C58.3992 8.5575 59.4801 8.86874 60.2091 9.49124C61.0257 10.195 61.4353 11.2012 61.4353 12.5112ZM60.0513 12.5475C60.0513 11.5937 59.7983 10.8625 59.2923 10.3525C58.7863 9.84374 58.0473 9.58874 57.0741 9.58874C56.6608 9.58874 56.3088 9.61624 56.017 9.67374V15.785C56.1785 15.81 56.4741 15.8212 56.9037 15.8212C57.9083 15.8212 58.6836 15.5425 59.2296 14.985C59.7757 14.4275 60.0513 13.615 60.0513 12.5475Z" fill="white"/>
<path d="M68.7737 13.7963C68.7737 14.7026 68.5144 15.4451 67.9959 16.0276C67.4523 16.6263 66.7321 16.9251 65.8328 16.9251C64.966 16.9251 64.2759 16.6388 63.7611 16.0638C63.2476 15.4901 62.9908 14.7663 62.9908 13.8938C62.9908 12.9813 63.2551 12.2326 63.7862 11.6513C64.3172 11.0701 65.0312 10.7788 65.9305 10.7788C66.7972 10.7788 67.4936 11.0651 68.0209 11.6388C68.5219 12.1963 68.7737 12.9163 68.7737 13.7963ZM67.4122 13.8388C67.4122 13.2951 67.2945 12.8288 67.0602 12.4401C66.7847 11.9701 66.3926 11.7351 65.8829 11.7351C65.3556 11.7351 64.9548 11.9701 64.6792 12.4401C64.4437 12.8288 64.3273 13.3026 64.3273 13.8626C64.3273 14.4063 64.445 14.8726 64.6792 15.2613C64.9635 15.7313 65.3593 15.9663 65.8704 15.9663C66.3714 15.9663 66.7646 15.7276 67.0477 15.2488C67.2907 14.8526 67.4122 14.3826 67.4122 13.8388Z" fill="white"/>
<path d="M78.6133 10.8988L76.7659 16.7913H75.5635L74.7982 14.2326C74.6041 13.5938 74.4462 12.9588 74.3235 12.3288H74.2997C74.1857 12.9763 74.0279 13.6101 73.825 14.2326L73.0121 16.7913H71.7959L70.0587 10.8988H71.4077L72.0752 13.7001C72.2368 14.3626 72.3696 14.9938 72.476 15.5913H72.4998C72.5975 15.0988 72.7591 14.4713 72.9871 13.7126L73.825 10.9001H74.8946L75.6975 13.6526C75.8916 14.3238 76.0494 14.9701 76.1709 15.5926H76.2073C76.2962 14.9863 76.4302 14.3401 76.6081 13.6526L77.3245 10.9001H78.6133V10.8988Z" fill="white"/>
<path d="M85.4183 16.7913H84.1056V13.4163C84.1056 12.3763 83.7098 11.8563 82.9158 11.8563C82.5262 11.8563 82.2119 11.9988 81.9676 12.2851C81.7259 12.5713 81.6031 12.9088 81.6031 13.2951V16.7901H80.2905V12.5826C80.2905 12.0651 80.2742 11.5038 80.2429 10.8963H81.3965L81.4579 11.8176H81.4942C81.647 11.5313 81.8749 11.2951 82.1743 11.1063C82.53 10.8863 82.9283 10.7751 83.3642 10.7751C83.9153 10.7751 84.3737 10.9526 84.7382 11.3088C85.1916 11.7451 85.4183 12.3963 85.4183 13.2613V16.7913V16.7913Z" fill="white"/>
<path d="M89.0379 16.7913H87.7266V8.19507H89.0379V16.7913Z" fill="white"/>
<path d="M96.766 13.7963C96.766 14.7026 96.5067 15.4451 95.9882 16.0276C95.4446 16.6263 94.7231 16.9251 93.8251 16.9251C92.9571 16.9251 92.267 16.6388 91.7534 16.0638C91.2399 15.4901 90.9832 14.7663 90.9832 13.8938C90.9832 12.9813 91.2474 12.2326 91.7785 11.6513C92.3096 11.0701 93.0235 10.7788 93.9215 10.7788C94.7895 10.7788 95.4847 11.0651 96.0132 11.6388C96.5142 12.1963 96.766 12.9163 96.766 13.7963ZM95.4032 13.8388C95.4032 13.2951 95.2855 12.8288 95.0513 12.4401C94.777 11.9701 94.3837 11.7351 93.8752 11.7351C93.3466 11.7351 92.9458 11.9701 92.6715 12.4401C92.4361 12.8288 92.3196 13.3026 92.3196 13.8626C92.3196 14.4063 92.4373 14.8726 92.6715 15.2613C92.9558 15.7313 93.3516 15.9663 93.8627 15.9663C94.3637 15.9663 94.7557 15.7276 95.0388 15.2488C95.283 14.8526 95.4032 14.3826 95.4032 13.8388Z" fill="white"/>
<path d="M103.119 16.7913H101.94L101.842 16.1126H101.806C101.403 16.6538 100.828 16.9251 100.081 16.9251C99.524 16.9251 99.0731 16.7463 98.7337 16.3913C98.4255 16.0688 98.2715 15.6676 98.2715 15.1913C98.2715 14.4713 98.5721 13.9226 99.177 13.5426C99.7808 13.1626 100.63 12.9763 101.723 12.9851V12.8751C101.723 12.0988 101.315 11.7113 100.497 11.7113C99.9148 11.7113 99.4012 11.8576 98.9579 12.1476L98.6911 11.2876C99.2397 10.9488 99.9173 10.7788 100.716 10.7788C102.259 10.7788 103.034 11.5913 103.034 13.2163V15.3863C103.034 15.9751 103.062 16.4438 103.119 16.7913ZM101.756 14.7663V13.8576C100.308 13.8326 99.5841 14.2288 99.5841 15.0451C99.5841 15.3526 99.6668 15.5826 99.8359 15.7363C100.005 15.8901 100.22 15.9663 100.477 15.9663C100.765 15.9663 101.035 15.8751 101.28 15.6938C101.527 15.5113 101.678 15.2801 101.735 14.9963C101.748 14.9326 101.756 14.8551 101.756 14.7663Z" fill="white"/>
<path d="M110.577 16.7913H109.413L109.351 15.8451H109.315C108.943 16.5651 108.309 16.9251 107.419 16.9251C106.707 16.9251 106.115 16.6463 105.645 16.0888C105.175 15.5313 104.941 14.8076 104.941 13.9188C104.941 12.9651 105.195 12.1926 105.706 11.6026C106.201 11.0526 106.807 10.7776 107.529 10.7776C108.322 10.7776 108.877 11.0438 109.192 11.5776H109.217V8.19507H110.531V15.2038C110.531 15.7776 110.546 16.3063 110.577 16.7913ZM109.217 14.3063V13.3238C109.217 13.1538 109.205 13.0163 109.181 12.9113C109.107 12.5963 108.948 12.3313 108.706 12.1176C108.462 11.9038 108.168 11.7963 107.828 11.7963C107.338 11.7963 106.955 11.9901 106.673 12.3788C106.394 12.7676 106.253 13.2638 106.253 13.8701C106.253 14.4526 106.387 14.9251 106.656 15.2888C106.94 15.6763 107.323 15.8701 107.803 15.8701C108.234 15.8701 108.578 15.7088 108.84 15.3851C109.093 15.0863 109.217 14.7263 109.217 14.3063Z" fill="white"/>
<path d="M121.803 13.7963C121.803 14.7026 121.544 15.4451 121.026 16.0276C120.482 16.6263 119.763 16.9251 118.863 16.9251C117.997 16.9251 117.307 16.6388 116.791 16.0638C116.277 15.4901 116.021 14.7663 116.021 13.8938C116.021 12.9813 116.285 12.2326 116.816 11.6513C117.347 11.0701 118.061 10.7788 118.962 10.7788C119.827 10.7788 120.525 11.0651 121.051 11.6388C121.552 12.1963 121.803 12.9163 121.803 13.7963ZM120.443 13.8388C120.443 13.2951 120.325 12.8288 120.091 12.4401C119.814 11.9701 119.424 11.7351 118.913 11.7351C118.387 11.7351 117.986 11.9701 117.709 12.4401C117.474 12.8288 117.357 13.3026 117.357 13.8626C117.357 14.4063 117.475 14.8726 117.709 15.2613C117.993 15.7313 118.389 15.9663 118.9 15.9663C119.401 15.9663 119.796 15.7276 120.079 15.2488C120.32 14.8526 120.443 14.3826 120.443 13.8388Z" fill="white"/>
<path d="M128.861 16.7913H127.55V13.4163C127.55 12.3763 127.154 11.8563 126.359 11.8563C125.969 11.8563 125.655 11.9988 125.412 12.2851C125.169 12.5713 125.047 12.9088 125.047 13.2951V16.7901H123.734V12.5826C123.734 12.0651 123.719 11.5038 123.687 10.8963H124.84L124.901 11.8176H124.937C125.091 11.5313 125.319 11.2951 125.617 11.1063C125.974 10.8863 126.371 10.7751 126.809 10.7751C127.358 10.7751 127.817 10.9526 128.181 11.3088C128.636 11.7451 128.861 12.3963 128.861 13.2613V16.7913V16.7913Z" fill="white"/>
<path d="M137.695 11.88H136.25V14.7425C136.25 15.47 136.507 15.8338 137.015 15.8338C137.251 15.8338 137.446 15.8138 137.6 15.7725L137.634 16.7663C137.375 16.8638 137.034 16.9125 136.614 16.9125C136.096 16.9125 135.693 16.755 135.401 16.44C135.108 16.125 134.962 15.595 134.962 14.8513V11.88H134.099V10.8988H134.962V9.81877L136.249 9.43127V10.8975H137.694V11.88H137.695Z" fill="white"/>
<path d="M144.644 16.7913H143.33V13.4413C143.33 12.3851 142.935 11.8563 142.142 11.8563C141.533 11.8563 141.117 12.1626 140.889 12.7751C140.85 12.9038 140.828 13.0613 140.828 13.2463V16.7901H139.516V8.19507H140.828V11.7463H140.853C141.266 11.1001 141.859 10.7776 142.626 10.7776C143.17 10.7776 143.62 10.9551 143.977 11.3113C144.421 11.7551 144.644 12.4151 144.644 13.2876V16.7913V16.7913Z" fill="white"/>
<path d="M151.812 13.5663C151.812 13.8013 151.795 13.9988 151.763 14.16H147.827C147.844 14.7425 148.032 15.1863 148.397 15.4938C148.73 15.7688 149.159 15.9063 149.685 15.9063C150.268 15.9063 150.799 15.8138 151.277 15.6275L151.483 16.5375C150.923 16.78 150.264 16.9013 149.501 16.9013C148.587 16.9013 147.867 16.6325 147.346 16.095C146.822 15.5575 146.563 14.8363 146.563 13.9313C146.563 13.0425 146.805 12.3025 147.292 11.7125C147.8 11.0825 148.488 10.7675 149.356 10.7675C150.205 10.7675 150.85 11.0825 151.286 11.7125C151.638 12.2125 151.812 12.8313 151.812 13.5663ZM150.56 13.2275C150.57 12.8388 150.483 12.5038 150.305 12.2213C150.078 11.8575 149.731 11.675 149.261 11.675C148.833 11.675 148.483 11.8525 148.216 12.2088C147.998 12.4925 147.869 12.8313 147.827 13.2275H150.56Z" fill="white"/>
</svg>
