<svg width="460" height="930" viewBox="0 0 460 930" fill="none" xmlns="http://www.w3.org/2000/svg">
<g clip-path="url(#clip0_10704_343)">
<path fill-rule="evenodd" clip-rule="evenodd" d="M3.48779 17.4723C0 24.3175 0 33.2783 0 51.2V878.8C0 896.722 0 905.682 3.48779 912.528C6.55574 918.549 11.4511 923.444 17.4723 926.512C24.3175 930 33.2783 930 51.2 930H408.8C426.722 930 435.683 930 442.528 926.512C448.549 923.444 453.444 918.549 456.512 912.528C460 905.682 460 896.722 460 878.8V51.2C460 33.2783 460 24.3175 456.512 17.4723C453.444 11.4511 448.549 6.55574 442.528 3.48779C435.683 0 426.722 0 408.8 0H51.2C33.2783 0 24.3175 0 17.4723 3.48779C11.4511 6.55574 6.55574 11.4511 3.48779 17.4723ZM24.5526 42.1212C24 44.423 24 47.212 24 52.7901V877.21C24 882.788 24 885.577 24.5526 887.879C26.3083 895.192 32.0181 900.902 39.3311 902.657C41.6328 903.21 44.4219 903.21 50 903.21H410C415.578 903.21 418.367 903.21 420.669 902.657C427.982 900.902 433.692 895.192 435.447 887.879C436 885.577 436 882.788 436 877.21V52.7901C436 47.212 436 44.423 435.447 42.1212C433.692 34.8082 427.982 29.0984 420.669 27.3427C418.367 26.7901 415.578 26.7901 410 26.7901H50C44.4219 26.7901 41.6328 26.7901 39.3311 27.3427C32.0181 29.0984 26.3083 34.8082 24.5526 42.1212Z" fill="#121212"/>
<ellipse cx="230" cy="49.7531" rx="12" ry="11.4815" fill="black"/>
</g>
<defs>
<clipPath id="clip0_10704_343">
<rect width="460" height="930" fill="white"/>
</clipPath>
</defs>
</svg>
